<svg xmlns="http://www.w3.org/2000/svg" version="1.1" xmlns:xlink="http://www.w3.org/1999/xlink" xmlns:svgjs="http://svgjs.com/svgjs" width="3000" height="2000" preserveAspectRatio="none" viewBox="0 0 3000 2000"><g mask="url(&quot;#SvgjsMask1048&quot;)" fill="none"><rect width="3000" height="2000" x="0" y="0" fill="rgba(59, 80, 101, 1)"></rect><path d="M0 0L737.82 0L0 179.28z" fill="rgba(255, 255, 255, .1)"></path><path d="M0 179.28L737.82 0L1263.98 0L0 744z" fill="rgba(255, 255, 255, .075)"></path><path d="M0 744L1263.98 0L1619.72 0L0 1054.6399999999999z" fill="rgba(255, 255, 255, .05)"></path><path d="M0 1054.6399999999999L1619.72 0L1844.39 0L0 1070.1899999999998z" fill="rgba(255, 255, 255, .025)"></path><path d="M3000 2000L1660.57 2000L3000 1464.63z" fill="rgba(0, 0, 0, .1)"></path><path d="M3000 1464.63L1660.57 2000L1170.23 2000L3000 770.9000000000001z" fill="rgba(0, 0, 0, .075)"></path><path d="M3000 770.9000000000001L1170.23 2000L791.33 2000L3000 680.3300000000002z" fill="rgba(0, 0, 0, .05)"></path><path d="M3000 680.3300000000002L791.3299999999999 2000L459.11999999999995 2000L3000 604.0800000000002z" fill="rgba(0, 0, 0, .025)"></path></g><defs><mask id="SvgjsMask1048"><rect width="3000" height="2000" fill="#ffffff"></rect></mask></defs></svg>